<?xml version="1.0" standalone="no"?>
<!DOCTYPE svg PUBLIC "-//W3C//DTD SVG 20010904//EN"
 "http://www.w3.org/TR/2001/REC-SVG-20010904/DTD/svg10.dtd">
<svg version="1.0" xmlns="http://www.w3.org/2000/svg"
 width="1280.000000pt" height="640.000000pt" viewBox="0 0 1280.000000 640.000000"
 preserveAspectRatio="xMidYMid meet">
<metadata>
Created by potrace 1.15, written by Peter Selinger 2001-2017
</metadata>
<g transform="translate(0.000000,640.000000) scale(0.100000,-0.100000)"
fill="#000000" stroke="none">
<path d="M910 6093 c-121 -39 -121 -144 -1 -433 l52 -125 -6 -82 c-7 -88 4
-161 37 -250 17 -47 23 -53 56 -59 20 -3 63 -18 95 -32 l57 -25 -50 -17 c-51
-17 -105 -60 -115 -90 -3 -8 -18 -21 -34 -27 -51 -19 -71 -65 -71 -163 -1 -47
-7 -120 -14 -163 -11 -69 -17 -82 -52 -118 -163 -169 -583 -429 -694 -429 -64
0 -143 -39 -159 -79 -17 -39 -8 -89 24 -132 14 -19 34 -54 46 -79 28 -60 47
-80 79 -80 16 0 37 -11 54 -28 24 -26 25 -30 11 -42 -8 -7 -15 -17 -15 -22 0
-15 46 -78 68 -94 20 -14 154 -35 332 -53 126 -12 272 -49 520 -131 321 -106
483 -134 675 -119 50 4 91 6 92 5 1 -1 -27 -35 -62 -76 l-64 -75 97 -22 c53
-13 108 -26 121 -29 14 -3 38 -20 55 -39 28 -30 33 -32 50 -19 41 29 73 11 85
-48 6 -29 11 -33 51 -40 56 -9 82 -37 73 -79 l-6 -30 38 25 c61 42 76 34 77
-40 1 -49 5 -50 63 -29 22 8 46 14 53 15 22 0 62 -48 62 -76 0 -21 3 -25 18
-18 70 31 136 4 134 -55 -1 -27 2 -31 16 -26 32 13 139 18 146 7 4 -6 0 -24
-8 -39 l-14 -28 74 3 c96 5 131 -9 155 -62 10 -23 19 -49 19 -58 0 -25 35 -23
100 8 l55 25 26 -29 27 -30 53 25 c68 33 118 28 165 -18 26 -25 31 -36 24 -50
-17 -31 -11 -106 12 -154 18 -36 30 -48 52 -52 l30 -6 -34 -28 c-32 -27 -33
-29 -17 -47 21 -23 22 -54 1 -93 -19 -38 -12 -59 21 -59 14 0 28 -6 31 -14 8
-20 -12 -53 -36 -61 -27 -8 -25 -23 5 -47 30 -24 31 -42 5 -93 -26 -50 -25
-51 9 -58 37 -8 45 -31 25 -67 -16 -27 -16 -29 11 -64 l28 -37 -20 -42 c-57
-117 -102 -140 -265 -138 l-116 1 -40 -45 c-44 -50 -72 -102 -72 -133 0 -35
42 -71 110 -96 36 -13 101 -42 144 -65 43 -22 91 -41 107 -41 16 0 29 -1 29
-3 0 -2 -32 -36 -72 -75 l-71 -72 -82 0 c-131 0 -190 -28 -242 -118 l-26 -43
33 -34 c40 -41 87 -65 130 -65 28 0 31 -2 24 -22 -12 -37 -6 -70 18 -95 30
-32 118 -56 176 -49 26 3 112 10 192 16 308 21 361 62 544 430 51 102 111 214
134 250 97 150 213 404 242 529 l13 54 19 -26 c20 -28 40 -36 34 -14 -17 52
-16 67 5 77 18 10 25 8 50 -16 l29 -28 0 64 0 64 30 -29 30 -29 0 65 1 64 22
-27 c13 -16 25 -28 28 -28 2 0 3 18 1 39 -5 47 11 79 44 91 21 8 24 16 24 57
l0 48 23 -35 22 -35 3 67 3 67 46 21 46 20 -26 28 c-33 34 -34 42 -5 42 12 0
30 8 41 17 14 13 36 18 78 18 l59 -1 -3 55 -2 55 54 38 c101 71 146 83 316 83
163 -1 180 -4 470 -87 158 -45 266 -67 340 -68 l50 -1 28 -62 c15 -34 35 -71
43 -82 15 -20 15 -20 33 2 l19 22 6 -31 c3 -17 6 -41 6 -53 0 -17 7 -24 29
-28 19 -4 40 -22 65 -56 26 -38 42 -51 60 -51 21 0 28 -8 42 -55 l17 -54 39
21 38 21 64 -61 c35 -34 76 -66 90 -72 16 -6 26 -17 26 -30 0 -11 8 -47 17
-80 l16 -60 29 27 c27 26 28 26 28 5 0 -13 14 -64 31 -115 31 -93 39 -170 24
-234 -9 -39 -28 -46 -250 -97 -312 -71 -405 -127 -592 -354 -46 -56 -88 -102
-94 -102 -17 0 -49 -64 -49 -100 0 -78 70 -147 135 -134 17 3 58 18 92 34 l62
29 -39 -51 c-66 -83 -56 -98 80 -122 152 -26 295 12 493 131 56 34 60 39 117
158 71 147 104 181 299 299 314 192 367 263 365 491 0 94 -4 109 -53 250 -29
83 -55 159 -58 171 -4 18 5 23 84 46 102 30 178 44 284 53 73 7 76 6 92 -18
16 -25 17 -25 74 -12 81 20 89 19 103 -14 6 -16 20 -37 31 -47 18 -16 21 -16
58 0 35 16 41 16 67 3 146 -76 153 -277 19 -493 l-48 -76 -36 8 c-222 46 -341
-21 -341 -192 0 -81 7 -90 56 -69 55 24 126 46 122 37 -23 -43 -39 -87 -36
-100 4 -21 72 -67 119 -81 85 -26 173 -13 310 44 82 35 93 34 85 -11 -4 -20
-4 -49 -1 -66 l7 -30 69 75 c38 42 93 92 122 113 28 21 70 54 92 74 22 20 63
53 92 74 66 47 99 87 114 136 13 42 22 46 63 30 23 -8 26 -7 32 17 12 45 -4
294 -25 399 -20 98 -48 192 -70 232 -6 11 -86 66 -178 122 -93 55 -208 131
-258 168 -89 66 -265 227 -265 243 0 4 16 9 35 11 l35 3 -36 50 c-20 28 -51
80 -69 116 l-34 67 45 7 c25 3 58 4 74 0 25 -6 29 -3 40 29 6 20 8 41 4 47 -5
8 -3 9 6 4 32 -20 110 -231 110 -301 l0 -29 45 47 c50 52 43 58 66 -56 l11
-59 26 33 26 33 30 -94 c35 -107 56 -124 77 -62 11 35 13 36 20 15 5 -13 14
-53 19 -89 6 -37 14 -71 17 -77 4 -5 28 14 54 44 l47 53 22 -61 c13 -34 29
-62 36 -62 7 0 22 12 33 27 12 14 23 24 25 22 2 -2 13 -34 25 -70 12 -36 28
-74 35 -84 12 -17 14 -17 35 4 l22 22 57 -44 c352 -271 806 -447 1352 -524
161 -22 689 -25 850 -4 304 39 589 111 862 218 l117 46 -25 33 c-14 18 -21 34
-17 37 4 3 34 10 66 17 31 7 57 16 57 19 0 4 -15 12 -32 19 l-33 13 30 13 c29
13 73 53 64 59 -2 2 -17 9 -34 16 l-30 13 32 17 c18 9 40 27 49 39 15 22 15
22 -38 22 l-53 1 55 49 c62 55 56 60 -42 34 -33 -8 -62 -13 -64 -11 -2 2 23
35 55 73 33 38 58 71 56 73 -2 2 -16 -6 -32 -16 -52 -36 -61 -36 -72 3 -13 47
-36 63 -92 64 -45 0 -45 0 -41 30 4 29 3 30 -35 30 -22 0 -42 3 -46 6 -3 4 7
25 22 48 16 23 31 51 33 61 4 28 -26 30 -67 6 -39 -23 -42 -21 -19 14 15 22
15 25 0 31 -8 3 -41 -6 -72 -20 -44 -20 -72 -26 -129 -26 -97 0 -112 16 -65
65 24 24 29 35 18 35 -9 0 -18 9 -21 19 -4 18 -16 19 -183 20 -492 3 -984 87
-1327 227 -207 84 -398 199 -567 341 -120 101 -190 175 -419 443 -218 254
-356 393 -481 481 -97 68 -215 134 -293 164 -40 15 -52 26 -69 61 -74 158
-319 300 -648 378 -164 38 -208 47 -371 70 -347 50 -527 60 -1024 60 -449 0
-677 -12 -880 -44 -107 -16 -314 -39 -560 -60 -132 -12 -413 -37 -625 -56
-741 -67 -1104 -80 -1355 -49 -425 52 -678 214 -959 615 -110 157 -270 307
-393 368 l-41 21 -41 -37 c-22 -20 -62 -73 -89 -117 -27 -44 -54 -80 -59 -80
-6 0 -29 24 -52 53 -51 65 -154 147 -331 265 -196 131 -274 191 -345 263 -59
60 -78 70 -115 57z m6076 -4214 c25 -17 43 -33 41 -36 -10 -9 -76 26 -87 46
-15 28 -7 26 46 -10z m139 -105 c28 -25 41 -41 30 -35 -28 15 -102 80 -90 80
6 0 33 -20 60 -45z m105 -543 c0 -5 -6 -14 -14 -20 -12 -10 -13 -8 -9 8 5 21
23 30 23 12z"/>
</g>
</svg>
